<svg xmlns="http://www.w3.org/2000/svg" version="1.1" xmlns:xlink="http://www.w3.org/1999/xlink" xmlns:svgjs="http://svgjs.dev/svgjs" width="1000" height="1000" viewBox="0 0 1000 1000"><rect width="1000" height="1000" fill="#0080ff"></rect><g transform="matrix(0.7,0,0,0.7,149.5757660487517,379.1692175270067)"><svg viewBox="0 0 396 137" data-background-color="#0080ff" preserveAspectRatio="xMidYMid meet" height="345" width="1000" xmlns="http://www.w3.org/2000/svg" xmlns:xlink="http://www.w3.org/1999/xlink"><g id="tight-bounds" transform="matrix(1,0,0,1,0.23999520670616903,0.04582691014527995)"><svg viewBox="0 0 395.52 136.9083461797094" height="136.9083461797094" width="395.52"><g><svg viewBox="0 0 395.52 136.9083461797094" height="136.9083461797094" width="395.52"><g><svg viewBox="0 0 395.52 136.9083461797094" height="136.9083461797094" width="395.52"><g id="textblocktransform"><svg viewBox="0 0 395.52 136.9083461797094" height="136.9083461797094" width="395.52" id="textblock"><g><svg viewBox="0 0 395.52 90.30734612839179" height="90.30734612839179" width="395.52"><g transform="matrix(1,0,0,1,0,0)"><svg width="395.52" viewBox="3.25 -33.650001525878906 151.08999633789062 34.5" height="90.30734612839179" data-palette-color="#ffffff"><path d="M25.75-33Q27.65-33 28.9-32.45 30.15-31.9 30.2-31.2L30.2-31.2Q29.8-30.6 27.5-27.95L27.5-27.95 25.4-25.6Q20.35-19.6 17.48-16.48 14.6-13.35 13.05-12.25L13.05-12.25Q12.75-12.05 12.15-11.8L12.15-11.8Q11.9-9.95 10.5-4.25L10.5-4.25 9.95-2.05Q9.6-0.6 8.93-0.1 8.25 0.4 6.25 0.4L6.25 0.4Q4.75 0.4 4.1-0.1 3.45-0.6 3.45-1.9L3.45-1.9Q3.45-2.45 3.6-2.95L3.6-2.95 5.6-10.95Q5.7-11.2 5.8-11.8L5.8-11.8Q4.95-12.1 4.73-12.63 4.5-13.15 4.4-14.4L4.4-14.4Q4.1-18.2 3.9-20.35L3.9-20.35Q3.85-21.05 3.55-24.53 3.25-28 3.25-31.15L3.25-31.15Q3.25-31.9 4.33-32.43 5.4-32.95 7.05-32.95L7.05-32.95Q8.55-32.95 9.25-32.43 9.95-31.9 9.95-30.8L9.95-30.8 10-18.05 10-14.9Q14.05-20.6 19.18-26.8 24.3-33 25.75-33L25.75-33ZM47.85-2.6Q47.95-1.3 48.2-0.25L48.2-0.25Q48.1 0.05 47.32 0.35 46.55 0.65 46 0.65L46 0.65Q44.2 0.65 43.42 0.13 42.65-0.4 42.65-1.45L42.65-1.45Q42.65-2.45 42.85-3.45L42.85-3.45Q41.75-1.95 39.62-0.98 37.5 0 36.2 0L36.2 0Q32.85 0 30.62-1.95 28.4-3.9 28.4-8.2L28.4-8.2Q28.4-12.25 30.32-15.83 32.25-19.4 35.65-21.58 39.05-23.75 43.2-23.75L43.2-23.75Q44-23.75 45.3-23.33 46.6-22.9 47.92-21.88 49.25-20.85 50.15-19.25L50.15-19.25Q50.55-19.25 51.1-18.85 51.65-18.45 51.65-18.05L51.65-18.05Q51.65-17.6 51.5-17.15L51.5-17.15 47.85-2.6ZM45.6-16.6Q45.3-17.7 44.42-18.45 43.55-19.2 42.85-19.2L42.85-19.2Q40.55-19.2 38.52-17.57 36.5-15.95 35.25-13.55 34-11.15 34-9L34-9Q34-6.9 34.5-5.55 35-4.2 36.45-4.2L36.45-4.2Q37.7-4.2 39.32-4.95 40.95-5.7 42.22-6.98 43.5-8.25 43.9-9.65L43.9-9.65 45.6-16.6ZM72.94-2.6Q73.05-1.3 73.3-0.25L73.3-0.25Q73.19 0.05 72.42 0.35 71.64 0.65 71.09 0.65L71.09 0.65Q69.3 0.65 68.52 0.13 67.75-0.4 67.75-1.45L67.75-1.45Q67.75-2.45 67.94-3.45L67.94-3.45Q66.84-1.95 64.72-0.98 62.59 0 61.3 0L61.3 0Q57.95 0 55.72-1.95 53.49-3.9 53.49-8.2L53.49-8.2Q53.49-12.25 55.42-15.83 57.34-19.4 60.74-21.58 64.14-23.75 68.3-23.75L68.3-23.75Q69.09-23.75 70.39-23.33 71.69-22.9 73.02-21.88 74.34-20.85 75.25-19.25L75.25-19.25Q75.64-19.25 76.19-18.85 76.75-18.45 76.75-18.05L76.75-18.05Q76.75-17.6 76.59-17.15L76.59-17.15 72.94-2.6ZM70.69-16.6Q70.39-17.7 69.52-18.45 68.64-19.2 67.94-19.2L67.94-19.2Q65.64-19.2 63.62-17.57 61.59-15.95 60.34-13.55 59.09-11.15 59.09-9L59.09-9Q59.09-6.9 59.59-5.55 60.09-4.2 61.55-4.2L61.55-4.2Q62.8-4.2 64.42-4.95 66.05-5.7 67.32-6.98 68.59-8.25 69-9.65L69-9.65 70.69-16.6ZM84.74-1.9Q84.69-1.6 84.52-0.73 84.34 0.15 83.67 0.5 82.99 0.85 81.54 0.85L81.54 0.85Q79.89 0.85 79.14 0.5 78.39 0.15 78.39-1L78.39-1 80.79-10.55Q82.79-18.8 83.44-21.05L83.44-21.05 82.19-22.55Q82.04-22.7 82.04-22.9L82.04-22.9Q82.04-23.4 83.14-23.73 84.24-24.05 86.19-24.05L86.19-24.05Q87.94-24.05 88.54-23.08 89.14-22.1 89.29-20.55L89.29-20.55 88.94-19.25Q90.54-21.2 92.67-22.48 94.79-23.75 96.44-23.75L96.44-23.75Q98.59-23.75 99.79-23 100.99-22.25 100.99-21.05L100.99-21.05Q100.99-20 100.27-18.88 99.54-17.75 98.44-16.98 97.34-16.2 96.29-16.1L96.29-16.1Q95.29-16.1 94.94-16.35 94.59-16.6 94.59-17.1L94.59-17.1 94.89-18.75Q90.89-17.65 87.64-13.45L87.64-13.45 84.74-1.9ZM105.19-29.7Q105.19-31.25 106.16-32.45 107.14-33.65 108.89-33.65L108.89-33.65Q110.74-33.65 112.11-32.5 113.49-31.35 113.49-29.9L113.49-29.9Q113.49-28.45 112.09-27.4 110.69-26.35 108.84-26.35L108.84-26.35Q107.04-26.35 106.11-27.28 105.19-28.2 105.19-29.7L105.19-29.7ZM110.44-20.85Q107.79-10.05 106.39-4.6L106.39-4.6Q106.19-3.8 106.19-2.85L106.19-2.85 106.24-1.45Q106.24-0.6 105.72-0.25 105.19 0.1 103.49 0.15L103.49 0.15Q101.84 0.15 100.99-0.2 100.14-0.55 100.14-1.7L100.14-1.7Q100.14-2.25 101.41-7.55 102.69-12.85 104.89-21.35L104.89-21.35 103.74-22.85Q103.59-23 103.59-23.2L103.59-23.2Q103.59-23.7 104.69-24.03 105.79-24.35 107.74-24.35L107.74-24.35Q109.44-24.35 109.91-23.38 110.39-22.4 110.44-20.85L110.44-20.85ZM154.34-14.95Q154.34-13.85 153.34-13.25 152.34-12.65 150.84-12.5L150.84-12.5 142.24-11.7Q141.99-10.2 141.88-9.55L141.88-9.55Q141.03-4.8 140.59-3.2L140.59-3.2Q140.24-2.05 139.21-1.5 138.19-0.95 136.94-0.95L136.94-0.95Q135.59-0.95 134.74-1.4 133.88-1.85 133.88-2.7L133.88-2.7 133.88-2.9Q134.03-4.2 134.94-8.1L134.94-8.1 135.69-11.6 129.44-11Q128.03-10.9 127.08-10.9L127.08-10.9Q126.19-10.9 125.69-11.3 125.19-11.7 125.19-12.8L125.19-12.8Q125.19-14.1 125.91-14.8 126.64-15.5 128.09-15.7L128.09-15.7Q132.19-16.2 136.88-16.6L136.88-16.6Q138.28-22.3 139.03-24.65L139.03-24.65Q139.38-25.75 140.38-26.43 141.38-27.1 142.38-27.1L142.38-27.1Q145.24-27.1 145.24-25.05L145.24-25.05Q145.24-24.65 144.03-19.85L144.03-19.85Q143.44-17.55 143.28-16.9L143.28-16.9 144.44-17Q146.03-17.2 147.59-17.35 149.13-17.5 149.94-17.55L149.94-17.55Q152.19-17.55 153.26-17.07 154.34-16.6 154.34-14.95L154.34-14.95Z" opacity="1" transform="matrix(1,0,0,1,0,0)" fill="#ffffff" class="wordmark-text-0" data-fill-palette-color="primary" id="text-0"></path></svg></g></svg></g><g transform="matrix(1,0,0,1,163.31020799999996,111.626743172998)"><svg viewBox="0 0 232.20979200000002 25.28160300671141" height="25.28160300671141" width="232.20979200000002"><g transform="matrix(1,0,0,1,0,0)"><svg width="232.20979200000002" viewBox="2.5 -35.75 335.2200012207031 36.5" height="25.28160300671141" data-palette-color="#ffffff"><path d="M2.5 0L2.5-0.75 5.5-1.5 5.5-33.5 2.5-34.25 2.5-35 16.75-35 16.75-34.25 13.75-33.5 13.75-1.25 24.5-1.25Q24.5-4.4 26.1-7.1L26.1-7.1Q26.8-8.25 27.75-9L27.75-9 29.25-9 29.25 0 2.5 0ZM46 0.75Q39.6 0.75 36.05-2.78 32.5-6.3 32.5-12.5L32.5-12.5Q32.5-16.55 34.05-19.55 35.6-22.55 38.37-24.15 41.15-25.75 44.75-25.75L44.75-25.75Q48.35-25.75 51.07-24.4 53.8-23.05 55.27-20.78 56.75-18.5 56.75-15.75L56.75-15.75Q56.75-14.5 56.5-13.6L56.5-13.6 56.25-12.75Q54.1-12.3 51.6-12L51.6-12Q46.35-11.25 41-11.25L41-11.25Q41-5.45 42.6-2.98 44.2-0.5 47-0.5L47-0.5Q48.95-0.5 50.62-1.43 52.3-2.35 53.27-3.88 54.25-5.4 54.25-7L54.25-7 55.5-7Q55.5-5 54.3-3.2 53.1-1.4 50.95-0.33 48.8 0.75 46 0.75L46 0.75ZM41-12.5Q44.2-12.5 46.2-12.75L46.2-12.75Q47.05-12.8 48-13L48-13Q48.05-13.25 48.25-14.1L48.25-14.1Q48.5-15.35 48.5-16.75L48.5-16.75Q48.5-20.9 47.4-22.83 46.3-24.75 44.75-24.75L44.75-24.75Q41-24.75 41-12.5L41-12.5ZM73.5 0.75Q70.2 0.75 67.77-0.45 65.34-1.65 64.05-3.75 62.75-5.85 62.75-8.5L62.75-8.5 62.75-23.75 59.25-23.75 59.25-25 62.75-25 62.75-27.5Q62.75-32 67.25-32L67.25-32 70.75-32 70.75-25 77.75-25 77.75-23.75 70.75-23.75 70.75-8.5Q70.75-3.9 71.7-2.2 72.65-0.5 74.5-0.5L74.5-0.5Q76.3-0.5 77.65-2.25 79-4 79-7L79-7 80.25-7Q80.25-3.3 78.4-1.28 76.55 0.75 73.5 0.75L73.5 0.75ZM85.24-22.25L83.24-32Q83.24-33.65 84.07-34.58 84.89-35.5 86.24-35.5L86.24-35.5Q87.59-35.5 88.42-34.58 89.24-33.65 89.24-32L89.24-32 87.24-22.25 85.24-22.25ZM105.24 0.75Q102.14 0.75 99.69-0.6L99.69-0.6Q98.49-1.25 97.74-2L97.74-2Q96.94-0.9 95.99-0.3L95.99-0.3Q95.54 0 94.99 0.25L94.99 0.25 93.74 0.25 93.74-8.25 95.74-8.25Q96.39-6.15 97.64-4.35L97.64-4.35Q100.29-0.5 104.24-0.5L104.24-0.5Q106.34-0.5 107.42-1.53 108.49-2.55 108.49-4.5L108.49-4.5Q108.49-6.15 107.02-7.28 105.54-8.4 102.39-10.05L102.39-10.05Q99.69-11.4 98.02-12.48 96.34-13.55 95.17-15.18 93.99-16.8 93.99-19L93.99-19Q93.99-22 96.57-23.88 99.14-25.75 104.49-25.75L104.49-25.75Q107.14-25.75 109.39-24.35L109.39-24.35Q110.49-23.7 111.29-23L111.29-23Q111.94-23.9 113.04-24.7L113.04-24.7Q113.89-25.2 114.04-25.25L114.04-25.25 115.29-25.25 115.29-16.75 113.29-16.75Q112.54-18.9 111.44-20.6L111.44-20.6Q108.94-24.5 105.49-24.5L105.49-24.5Q104.14-24.5 103.19-23.5 102.24-22.5 102.24-21L102.24-21Q102.24-19.1 103.84-17.82 105.44-16.55 108.69-14.9L108.69-14.9Q111.34-13.55 112.92-12.53 114.49-11.5 115.62-10 116.74-8.5 116.74-6.5L116.74-6.5Q116.74 0.75 105.24 0.75L105.24 0.75ZM151.74 0.75Q143.74 0.75 139.24-4 134.74-8.75 134.74-17.5L134.74-17.5Q134.74-23.25 136.71-27.38 138.69-31.5 142.26-33.63 145.84-35.75 150.54-35.75L150.54-35.75Q153.39-35.75 156.29-34.1L156.29-34.1Q157.39-33.5 158.49-32.5L158.49-32.5Q159.34-33.8 160.24-34.55L160.24-34.55Q161.14-35.2 161.24-35.25L161.24-35.25 162.49-35.25 162.49-25.75 160.49-25.75Q159.84-28.15 158.54-30.1L158.54-30.1Q157.34-32 155.56-33.25 153.79-34.5 151.49-34.5L151.49-34.5Q148.04-34.5 145.76-30.5 143.49-26.5 143.49-17.5L143.49-17.5Q143.49-8.35 145.96-4.42 148.44-0.5 152.74-0.5L152.74-0.5Q155.09-0.5 157.21-1.83 159.34-3.15 160.66-5.35 161.99-7.55 161.99-10L161.99-10 163.24-10Q163.24-7.15 161.71-4.67 160.19-2.2 157.56-0.73 154.94 0.75 151.74 0.75L151.74 0.75ZM179.73 0.75Q173.53 0.75 170.01-2.78 166.48-6.3 166.48-12.5L166.48-12.5Q166.48-18.7 170.01-22.23 173.53-25.75 179.73-25.75L179.73-25.75Q185.93-25.75 189.46-22.23 192.98-18.7 192.98-12.5L192.98-12.5Q192.98-6.3 189.46-2.78 185.93 0.75 179.73 0.75L179.73 0.75ZM179.73-0.25Q181.73-0.25 183.11-3.05 184.48-5.85 184.48-12.5L184.48-12.5Q184.48-19.15 183.11-21.95 181.73-24.75 179.73-24.75L179.73-24.75Q177.73-24.75 176.36-21.95 174.98-19.15 174.98-12.5L174.98-12.5Q174.98-5.85 176.36-3.05 177.73-0.25 179.73-0.25L179.73-0.25ZM196.98 0L196.98-0.75 199.98-1.5 199.98-23.5 196.98-24.25 196.98-25 201.48-25Q204.43-25 206.13-23.1L206.13-23.1Q206.78-22.35 207.23-21.25L207.23-21.25Q207.93-22.55 208.88-23.5L208.88-23.5Q211.13-25.75 214.48-25.75L214.48-25.75Q217.28-25.75 219.51-24.58 221.73-23.4 222.98-21.5 224.23-19.6 224.23-17.5L224.23-17.5 224.23-1.5 227.23-0.75 227.23 0 220.73 0Q216.23 0 216.23-4.5L216.23-4.5 216.23-17.5Q216.23-20.65 215.11-22.33 213.98-24 212.48-24L212.48-24Q210.58-24 209.08-22L209.08-22Q208.43-21.15 207.98-20L207.98-20 207.98-1.5 210.98-0.75 210.98 0 196.98 0ZM230.23 0L230.23-0.75 233.23-1.5 233.23-23.5 230.23-24.25 230.23-25 234.73-25Q237.68-25 239.38-23.1L239.38-23.1Q240.03-22.35 240.48-21.25L240.48-21.25Q241.18-22.55 242.13-23.5L242.13-23.5Q244.38-25.75 247.73-25.75L247.73-25.75Q250.53-25.75 252.75-24.58 254.98-23.4 256.23-21.5 257.48-19.6 257.48-17.5L257.48-17.5 257.48-1.5 260.48-0.75 260.48 0 253.98 0Q249.48 0 249.48-4.5L249.48-4.5 249.48-17.5Q249.48-20.65 248.35-22.33 247.23-24 245.73-24L245.73-24Q243.83-24 242.33-22L242.33-22Q241.68-21.15 241.23-20L241.23-20 241.23-1.5 244.23-0.75 244.23 0 230.23 0ZM276.98 0.75Q270.58 0.75 267.03-2.78 263.48-6.3 263.48-12.5L263.48-12.5Q263.48-16.55 265.03-19.55 266.58-22.55 269.35-24.15 272.13-25.75 275.73-25.75L275.73-25.75Q279.33-25.75 282.05-24.4 284.78-23.05 286.25-20.78 287.73-18.5 287.73-15.75L287.73-15.75Q287.73-14.5 287.48-13.6L287.48-13.6 287.23-12.75Q285.08-12.3 282.58-12L282.58-12Q277.33-11.25 271.98-11.25L271.98-11.25Q271.98-5.45 273.58-2.98 275.18-0.5 277.98-0.5L277.98-0.5Q279.93-0.5 281.6-1.43 283.28-2.35 284.25-3.88 285.23-5.4 285.23-7L285.23-7 286.48-7Q286.48-5 285.28-3.2 284.08-1.4 281.93-0.33 279.78 0.75 276.98 0.75L276.98 0.75ZM271.98-12.5Q275.18-12.5 277.18-12.75L277.18-12.75Q278.03-12.8 278.98-13L278.98-13Q279.03-13.25 279.23-14.1L279.23-14.1Q279.48-15.35 279.48-16.75L279.48-16.75Q279.48-20.9 278.38-22.83 277.28-24.75 275.73-24.75L275.73-24.75Q271.98-24.75 271.98-12.5L271.98-12.5ZM304.97 0.75Q298.57 0.75 295.02-2.78 291.47-6.3 291.47-12.5L291.47-12.5Q291.47-18.7 295.02-22.23 298.57-25.75 304.97-25.75L304.97-25.75Q309.57-25.75 311.9-24.15 314.22-22.55 314.22-20.25L314.22-20.25Q314.22-18.55 313.2-17.53 312.17-16.5 310.47-16.5L310.47-16.5Q309.77-16.5 309.07-16.6L309.07-16.6 308.47-16.75 308.47-24.25 307.77-24.5Q307.02-24.75 305.97-24.75L305.97-24.75Q303.12-24.75 301.55-22.05 299.97-19.35 299.97-12.5L299.97-12.5Q299.97-5.85 301.55-3.18 303.12-0.5 305.97-0.5L305.97-0.5Q307.92-0.5 309.6-1.43 311.27-2.35 312.25-3.88 313.22-5.4 313.22-7L313.22-7 314.47-7Q314.47-5 313.27-3.2 312.07-1.4 309.92-0.33 307.77 0.75 304.97 0.75L304.97 0.75ZM330.97 0.75Q327.67 0.75 325.25-0.45 322.82-1.65 321.52-3.75 320.22-5.85 320.22-8.5L320.22-8.5 320.22-23.75 316.72-23.75 316.72-25 320.22-25 320.22-27.5Q320.22-32 324.72-32L324.72-32 328.22-32 328.22-25 335.22-25 335.22-23.75 328.22-23.75 328.22-8.5Q328.22-3.9 329.17-2.2 330.12-0.5 331.97-0.5L331.97-0.5Q333.77-0.5 335.12-2.25 336.47-4 336.47-7L336.47-7 337.72-7Q337.72-3.3 335.87-1.28 334.02 0.75 330.97 0.75L330.97 0.75Z" opacity="1" transform="matrix(1,0,0,1,0,0)" fill="#ffffff" class="slogan-text-1" data-fill-palette-color="secondary" id="text-1"></path></svg></g></svg></g></svg></g></svg></g></svg></g><defs></defs></svg><rect width="395.52" height="136.9083461797094" fill="none" stroke="none" visibility="hidden"></rect></g></svg></g></svg>